<mxfile host="app.diagrams.net" agent="Mozilla/5.0 (Windows NT 10.0; Win64; x64) AppleWebKit/537.36 (KHTML, like Gecko) Chrome/129.0.0.0 Safari/537.36" version="24.8.4">
  <diagram name="PÃ¡gina-1" id="s3zIilqeUDxls5-f_mEL">
    <mxGraphModel dx="2796" dy="2037" grid="1" gridSize="10" guides="1" tooltips="1" connect="1" arrows="1" fold="1" page="1" pageScale="1" pageWidth="827" pageHeight="1169" math="0" shadow="0">
      <root>
        <mxCell id="0" />
        <mxCell id="1" parent="0" />
        <mxCell id="kJB5yDUEEWRSCDy5C5Zh-87" value="" style="rounded=0;whiteSpace=wrap;html=1;fillColor=none;" parent="1" vertex="1">
          <mxGeometry x="930" y="-120" width="640" height="530" as="geometry" />
        </mxCell>
        <mxCell id="kJB5yDUEEWRSCDy5C5Zh-86" value="" style="rounded=0;whiteSpace=wrap;html=1;fillColor=none;" parent="1" vertex="1">
          <mxGeometry x="-230" y="-10" width="1130" height="420" as="geometry" />
        </mxCell>
        <mxCell id="WCrNI9v-OMvs1R2Dv4N2-1" value="&lt;div&gt;&lt;span style=&quot;background-color: initial;&quot;&gt;&amp;lt;&amp;lt;abstract&amp;gt;&amp;gt;&lt;/span&gt;&lt;br&gt;&lt;/div&gt;&lt;div&gt;Person&lt;/div&gt;" style="swimlane;fontStyle=1;align=center;verticalAlign=top;childLayout=stackLayout;horizontal=1;startSize=40;horizontalStack=0;resizeParent=1;resizeParentMax=0;resizeLast=0;collapsible=1;marginBottom=0;whiteSpace=wrap;html=1;" parent="1" vertex="1">
          <mxGeometry x="60" y="140" width="160" height="58" as="geometry" />
        </mxCell>
        <mxCell id="WCrNI9v-OMvs1R2Dv4N2-2" value="&amp;nbsp;" style="text;strokeColor=none;fillColor=none;align=left;verticalAlign=top;spacingLeft=4;spacingRight=4;overflow=hidden;rotatable=0;points=[[0,0.5],[1,0.5]];portConstraint=eastwest;whiteSpace=wrap;html=1;" parent="WCrNI9v-OMvs1R2Dv4N2-1" vertex="1">
          <mxGeometry y="40" width="160" height="10" as="geometry" />
        </mxCell>
        <mxCell id="WCrNI9v-OMvs1R2Dv4N2-3" value="" style="line;strokeWidth=1;fillColor=none;align=left;verticalAlign=middle;spacingTop=-1;spacingLeft=3;spacingRight=3;rotatable=0;labelPosition=right;points=[];portConstraint=eastwest;strokeColor=inherit;" parent="WCrNI9v-OMvs1R2Dv4N2-1" vertex="1">
          <mxGeometry y="50" width="160" height="8" as="geometry" />
        </mxCell>
        <mxCell id="WCrNI9v-OMvs1R2Dv4N2-6" value="&lt;div&gt;&amp;lt;&amp;lt;abstract&amp;gt;&amp;gt;&lt;br&gt;&lt;/div&gt;Vehicle" style="swimlane;fontStyle=1;align=center;verticalAlign=top;childLayout=stackLayout;horizontal=1;startSize=40;horizontalStack=0;resizeParent=1;resizeParentMax=0;resizeLast=0;collapsible=1;marginBottom=0;whiteSpace=wrap;html=1;" parent="1" vertex="1">
          <mxGeometry x="610" y="140" width="160" height="58" as="geometry" />
        </mxCell>
        <mxCell id="WCrNI9v-OMvs1R2Dv4N2-7" value="&amp;nbsp;" style="text;strokeColor=none;fillColor=none;align=left;verticalAlign=top;spacingLeft=4;spacingRight=4;overflow=hidden;rotatable=0;points=[[0,0.5],[1,0.5]];portConstraint=eastwest;whiteSpace=wrap;html=1;" parent="WCrNI9v-OMvs1R2Dv4N2-6" vertex="1">
          <mxGeometry y="40" width="160" height="10" as="geometry" />
        </mxCell>
        <mxCell id="WCrNI9v-OMvs1R2Dv4N2-8" value="" style="line;strokeWidth=1;fillColor=none;align=left;verticalAlign=middle;spacingTop=-1;spacingLeft=3;spacingRight=3;rotatable=0;labelPosition=right;points=[];portConstraint=eastwest;strokeColor=inherit;" parent="WCrNI9v-OMvs1R2Dv4N2-6" vertex="1">
          <mxGeometry y="50" width="160" height="8" as="geometry" />
        </mxCell>
        <mxCell id="WCrNI9v-OMvs1R2Dv4N2-9" value="TaxiDriver&lt;span style=&quot;color: rgba(0, 0, 0, 0); font-family: monospace; font-size: 0px; font-weight: 400; text-align: start; text-wrap: nowrap;&quot;&gt;%3CmxGraphModel%3E%3Croot%3E%3CmxCell%20id%3D%220%22%2F%3E%3CmxCell%20id%3D%221%22%20parent%3D%220%22%2F%3E%3CmxCell%20id%3D%222%22%20value%3D%22Person%22%20style%3D%22swimlane%3BfontStyle%3D1%3Balign%3Dcenter%3BverticalAlign%3Dtop%3BchildLayout%3DstackLayout%3Bhorizontal%3D1%3BstartSize%3D26%3BhorizontalStack%3D0%3BresizeParent%3D1%3BresizeParentMax%3D0%3BresizeLast%3D0%3Bcollapsible%3D1%3BmarginBottom%3D0%3BwhiteSpace%3Dwrap%3Bhtml%3D1%3B%22%20vertex%3D%221%22%20parent%3D%221%22%3E%3CmxGeometry%20x%3D%22120%22%20y%3D%22120%22%20width%3D%22160%22%20height%3D%2260%22%20as%3D%22geometry%22%2F%3E%3C%2FmxCell%3E%3CmxCell%20id%3D%223%22%20value%3D%22%26amp%3Bnbsp%3B%22%20style%3D%22text%3BstrokeColor%3Dnone%3BfillColor%3Dnone%3Balign%3Dleft%3BverticalAlign%3Dtop%3BspacingLeft%3D4%3BspacingRight%3D4%3Boverflow%3Dhidden%3Brotatable%3D0%3Bpoints%3D%5B%5B0%2C0.5%5D%2C%5B1%2C0.5%5D%5D%3BportConstraint%3Deastwest%3BwhiteSpace%3Dwrap%3Bhtml%3D1%3B%22%20vertex%3D%221%22%20parent%3D%222%22%3E%3CmxGeometry%20y%3D%2226%22%20width%3D%22160%22%20height%3D%2226%22%20as%3D%22geometry%22%2F%3E%3C%2FmxCell%3E%3CmxCell%20id%3D%224%22%20value%3D%22%22%20style%3D%22line%3BstrokeWidth%3D1%3BfillColor%3Dnone%3Balign%3Dleft%3BverticalAlign%3Dmiddle%3BspacingTop%3D-1%3BspacingLeft%3D3%3BspacingRight%3D3%3Brotatable%3D0%3BlabelPosition%3Dright%3Bpoints%3D%5B%5D%3BportConstraint%3Deastwest%3BstrokeColor%3Dinherit%3B%22%20vertex%3D%221%22%20parent%3D%222%22%3E%3CmxGeometry%20y%3D%2252%22%20width%3D%22160%22%20height%3D%228%22%20as%3D%22geometry%22%2F%3E%3C%2FmxCell%3E%3C%2Froot%3E%3C%2FmxGraphModel%3E&lt;/span&gt;" style="swimlane;fontStyle=1;align=center;verticalAlign=top;childLayout=stackLayout;horizontal=1;startSize=26;horizontalStack=0;resizeParent=1;resizeParentMax=0;resizeLast=0;collapsible=1;marginBottom=0;whiteSpace=wrap;html=1;" parent="1" vertex="1">
          <mxGeometry x="140" y="260" width="160" height="60" as="geometry" />
        </mxCell>
        <mxCell id="WCrNI9v-OMvs1R2Dv4N2-10" value="&amp;nbsp;" style="text;strokeColor=none;fillColor=none;align=left;verticalAlign=top;spacingLeft=4;spacingRight=4;overflow=hidden;rotatable=0;points=[[0,0.5],[1,0.5]];portConstraint=eastwest;whiteSpace=wrap;html=1;" parent="WCrNI9v-OMvs1R2Dv4N2-9" vertex="1">
          <mxGeometry y="26" width="160" height="26" as="geometry" />
        </mxCell>
        <mxCell id="WCrNI9v-OMvs1R2Dv4N2-11" value="" style="line;strokeWidth=1;fillColor=none;align=left;verticalAlign=middle;spacingTop=-1;spacingLeft=3;spacingRight=3;rotatable=0;labelPosition=right;points=[];portConstraint=eastwest;strokeColor=inherit;" parent="WCrNI9v-OMvs1R2Dv4N2-9" vertex="1">
          <mxGeometry y="52" width="160" height="8" as="geometry" />
        </mxCell>
        <mxCell id="WCrNI9v-OMvs1R2Dv4N2-12" value="PoliceOfficer" style="swimlane;fontStyle=1;align=center;verticalAlign=top;childLayout=stackLayout;horizontal=1;startSize=26;horizontalStack=0;resizeParent=1;resizeParentMax=0;resizeLast=0;collapsible=1;marginBottom=0;whiteSpace=wrap;html=1;" parent="1" vertex="1">
          <mxGeometry x="310" y="260" width="160" height="60" as="geometry" />
        </mxCell>
        <mxCell id="WCrNI9v-OMvs1R2Dv4N2-13" value="&amp;nbsp;" style="text;strokeColor=none;fillColor=none;align=left;verticalAlign=top;spacingLeft=4;spacingRight=4;overflow=hidden;rotatable=0;points=[[0,0.5],[1,0.5]];portConstraint=eastwest;whiteSpace=wrap;html=1;" parent="WCrNI9v-OMvs1R2Dv4N2-12" vertex="1">
          <mxGeometry y="26" width="160" height="26" as="geometry" />
        </mxCell>
        <mxCell id="WCrNI9v-OMvs1R2Dv4N2-14" value="" style="line;strokeWidth=1;fillColor=none;align=left;verticalAlign=middle;spacingTop=-1;spacingLeft=3;spacingRight=3;rotatable=0;labelPosition=right;points=[];portConstraint=eastwest;strokeColor=inherit;" parent="WCrNI9v-OMvs1R2Dv4N2-12" vertex="1">
          <mxGeometry y="52" width="160" height="8" as="geometry" />
        </mxCell>
        <mxCell id="WCrNI9v-OMvs1R2Dv4N2-15" value="Citi&lt;span style=&quot;background-color: initial;&quot;&gt;zen&lt;/span&gt;" style="swimlane;fontStyle=1;align=center;verticalAlign=top;childLayout=stackLayout;horizontal=1;startSize=26;horizontalStack=0;resizeParent=1;resizeParentMax=0;resizeLast=0;collapsible=1;marginBottom=0;whiteSpace=wrap;html=1;" parent="1" vertex="1">
          <mxGeometry x="-200" y="260" width="160" height="60" as="geometry" />
        </mxCell>
        <mxCell id="WCrNI9v-OMvs1R2Dv4N2-16" value="&amp;nbsp;" style="text;strokeColor=none;fillColor=none;align=left;verticalAlign=top;spacingLeft=4;spacingRight=4;overflow=hidden;rotatable=0;points=[[0,0.5],[1,0.5]];portConstraint=eastwest;whiteSpace=wrap;html=1;" parent="WCrNI9v-OMvs1R2Dv4N2-15" vertex="1">
          <mxGeometry y="26" width="160" height="26" as="geometry" />
        </mxCell>
        <mxCell id="WCrNI9v-OMvs1R2Dv4N2-17" value="" style="line;strokeWidth=1;fillColor=none;align=left;verticalAlign=middle;spacingTop=-1;spacingLeft=3;spacingRight=3;rotatable=0;labelPosition=right;points=[];portConstraint=eastwest;strokeColor=inherit;" parent="WCrNI9v-OMvs1R2Dv4N2-15" vertex="1">
          <mxGeometry y="52" width="160" height="8" as="geometry" />
        </mxCell>
        <mxCell id="WCrNI9v-OMvs1R2Dv4N2-18" value="Passenger" style="swimlane;fontStyle=1;align=center;verticalAlign=top;childLayout=stackLayout;horizontal=1;startSize=26;horizontalStack=0;resizeParent=1;resizeParentMax=0;resizeLast=0;collapsible=1;marginBottom=0;whiteSpace=wrap;html=1;" parent="1" vertex="1">
          <mxGeometry x="-30" y="260" width="160" height="60" as="geometry" />
        </mxCell>
        <mxCell id="WCrNI9v-OMvs1R2Dv4N2-19" value="&amp;nbsp;" style="text;strokeColor=none;fillColor=none;align=left;verticalAlign=top;spacingLeft=4;spacingRight=4;overflow=hidden;rotatable=0;points=[[0,0.5],[1,0.5]];portConstraint=eastwest;whiteSpace=wrap;html=1;" parent="WCrNI9v-OMvs1R2Dv4N2-18" vertex="1">
          <mxGeometry y="26" width="160" height="26" as="geometry" />
        </mxCell>
        <mxCell id="WCrNI9v-OMvs1R2Dv4N2-20" value="" style="line;strokeWidth=1;fillColor=none;align=left;verticalAlign=middle;spacingTop=-1;spacingLeft=3;spacingRight=3;rotatable=0;labelPosition=right;points=[];portConstraint=eastwest;strokeColor=inherit;" parent="WCrNI9v-OMvs1R2Dv4N2-18" vertex="1">
          <mxGeometry y="52" width="160" height="8" as="geometry" />
        </mxCell>
        <mxCell id="WCrNI9v-OMvs1R2Dv4N2-21" value="Taxi" style="swimlane;fontStyle=1;align=center;verticalAlign=top;childLayout=stackLayout;horizontal=1;startSize=26;horizontalStack=0;resizeParent=1;resizeParentMax=0;resizeLast=0;collapsible=1;marginBottom=0;whiteSpace=wrap;html=1;" parent="1" vertex="1">
          <mxGeometry x="530" y="260" width="160" height="60" as="geometry" />
        </mxCell>
        <mxCell id="WCrNI9v-OMvs1R2Dv4N2-22" value="&amp;nbsp;" style="text;strokeColor=none;fillColor=none;align=left;verticalAlign=top;spacingLeft=4;spacingRight=4;overflow=hidden;rotatable=0;points=[[0,0.5],[1,0.5]];portConstraint=eastwest;whiteSpace=wrap;html=1;" parent="WCrNI9v-OMvs1R2Dv4N2-21" vertex="1">
          <mxGeometry y="26" width="160" height="26" as="geometry" />
        </mxCell>
        <mxCell id="WCrNI9v-OMvs1R2Dv4N2-23" value="" style="line;strokeWidth=1;fillColor=none;align=left;verticalAlign=middle;spacingTop=-1;spacingLeft=3;spacingRight=3;rotatable=0;labelPosition=right;points=[];portConstraint=eastwest;strokeColor=inherit;" parent="WCrNI9v-OMvs1R2Dv4N2-21" vertex="1">
          <mxGeometry y="52" width="160" height="8" as="geometry" />
        </mxCell>
        <mxCell id="WCrNI9v-OMvs1R2Dv4N2-24" value="PoliceCar" style="swimlane;fontStyle=1;align=center;verticalAlign=top;childLayout=stackLayout;horizontal=1;startSize=26;horizontalStack=0;resizeParent=1;resizeParentMax=0;resizeLast=0;collapsible=1;marginBottom=0;whiteSpace=wrap;html=1;" parent="1" vertex="1">
          <mxGeometry x="700" y="260" width="160" height="60" as="geometry" />
        </mxCell>
        <mxCell id="WCrNI9v-OMvs1R2Dv4N2-25" value="&amp;nbsp;" style="text;strokeColor=none;fillColor=none;align=left;verticalAlign=top;spacingLeft=4;spacingRight=4;overflow=hidden;rotatable=0;points=[[0,0.5],[1,0.5]];portConstraint=eastwest;whiteSpace=wrap;html=1;" parent="WCrNI9v-OMvs1R2Dv4N2-24" vertex="1">
          <mxGeometry y="26" width="160" height="26" as="geometry" />
        </mxCell>
        <mxCell id="WCrNI9v-OMvs1R2Dv4N2-26" value="" style="line;strokeWidth=1;fillColor=none;align=left;verticalAlign=middle;spacingTop=-1;spacingLeft=3;spacingRight=3;rotatable=0;labelPosition=right;points=[];portConstraint=eastwest;strokeColor=inherit;" parent="WCrNI9v-OMvs1R2Dv4N2-24" vertex="1">
          <mxGeometry y="52" width="160" height="8" as="geometry" />
        </mxCell>
        <mxCell id="WCrNI9v-OMvs1R2Dv4N2-27" value="PersonController" style="swimlane;fontStyle=1;align=center;verticalAlign=top;childLayout=stackLayout;horizontal=1;startSize=26;horizontalStack=0;resizeParent=1;resizeParentMax=0;resizeLast=0;collapsible=1;marginBottom=0;whiteSpace=wrap;html=1;" parent="1" vertex="1">
          <mxGeometry x="60" y="30" width="160" height="60" as="geometry" />
        </mxCell>
        <mxCell id="WCrNI9v-OMvs1R2Dv4N2-28" value="&amp;nbsp;" style="text;strokeColor=none;fillColor=none;align=left;verticalAlign=top;spacingLeft=4;spacingRight=4;overflow=hidden;rotatable=0;points=[[0,0.5],[1,0.5]];portConstraint=eastwest;whiteSpace=wrap;html=1;" parent="WCrNI9v-OMvs1R2Dv4N2-27" vertex="1">
          <mxGeometry y="26" width="160" height="26" as="geometry" />
        </mxCell>
        <mxCell id="WCrNI9v-OMvs1R2Dv4N2-29" value="" style="line;strokeWidth=1;fillColor=none;align=left;verticalAlign=middle;spacingTop=-1;spacingLeft=3;spacingRight=3;rotatable=0;labelPosition=right;points=[];portConstraint=eastwest;strokeColor=inherit;" parent="WCrNI9v-OMvs1R2Dv4N2-27" vertex="1">
          <mxGeometry y="52" width="160" height="8" as="geometry" />
        </mxCell>
        <mxCell id="WCrNI9v-OMvs1R2Dv4N2-30" value="VehicleController" style="swimlane;fontStyle=1;align=center;verticalAlign=top;childLayout=stackLayout;horizontal=1;startSize=26;horizontalStack=0;resizeParent=1;resizeParentMax=0;resizeLast=0;collapsible=1;marginBottom=0;whiteSpace=wrap;html=1;" parent="1" vertex="1">
          <mxGeometry x="610" y="30" width="160" height="60" as="geometry" />
        </mxCell>
        <mxCell id="WCrNI9v-OMvs1R2Dv4N2-31" value="&amp;nbsp;" style="text;strokeColor=none;fillColor=none;align=left;verticalAlign=top;spacingLeft=4;spacingRight=4;overflow=hidden;rotatable=0;points=[[0,0.5],[1,0.5]];portConstraint=eastwest;whiteSpace=wrap;html=1;" parent="WCrNI9v-OMvs1R2Dv4N2-30" vertex="1">
          <mxGeometry y="26" width="160" height="26" as="geometry" />
        </mxCell>
        <mxCell id="WCrNI9v-OMvs1R2Dv4N2-32" value="" style="line;strokeWidth=1;fillColor=none;align=left;verticalAlign=middle;spacingTop=-1;spacingLeft=3;spacingRight=3;rotatable=0;labelPosition=right;points=[];portConstraint=eastwest;strokeColor=inherit;" parent="WCrNI9v-OMvs1R2Dv4N2-30" vertex="1">
          <mxGeometry y="52" width="160" height="8" as="geometry" />
        </mxCell>
        <mxCell id="WCrNI9v-OMvs1R2Dv4N2-33" value="" style="endArrow=block;endSize=16;endFill=0;html=1;rounded=0;entryX=0.5;entryY=1;entryDx=0;entryDy=0;exitX=0.5;exitY=0;exitDx=0;exitDy=0;" parent="1" source="WCrNI9v-OMvs1R2Dv4N2-15" target="WCrNI9v-OMvs1R2Dv4N2-1" edge="1">
          <mxGeometry x="-0.6875" y="60" width="160" relative="1" as="geometry">
            <mxPoint x="-160" y="220" as="sourcePoint" />
            <mxPoint y="220" as="targetPoint" />
            <Array as="points">
              <mxPoint x="-120" y="230" />
              <mxPoint x="140" y="230" />
            </Array>
            <mxPoint x="-1" as="offset" />
          </mxGeometry>
        </mxCell>
        <mxCell id="WCrNI9v-OMvs1R2Dv4N2-35" value="" style="endArrow=block;endSize=16;endFill=0;html=1;rounded=0;exitX=0.5;exitY=0;exitDx=0;exitDy=0;entryX=0.5;entryY=1;entryDx=0;entryDy=0;" parent="1" source="WCrNI9v-OMvs1R2Dv4N2-18" target="WCrNI9v-OMvs1R2Dv4N2-1" edge="1">
          <mxGeometry x="-0.6" y="78" width="160" relative="1" as="geometry">
            <mxPoint x="-120" y="160" as="sourcePoint" />
            <mxPoint x="140" y="200" as="targetPoint" />
            <Array as="points">
              <mxPoint x="50" y="230" />
              <mxPoint x="140" y="230" />
            </Array>
            <mxPoint x="-60" y="28" as="offset" />
          </mxGeometry>
        </mxCell>
        <mxCell id="WCrNI9v-OMvs1R2Dv4N2-37" value="" style="endArrow=block;endSize=16;endFill=0;html=1;rounded=0;exitX=0.5;exitY=0;exitDx=0;exitDy=0;entryX=0.5;entryY=1;entryDx=0;entryDy=0;" parent="1" source="WCrNI9v-OMvs1R2Dv4N2-12" target="WCrNI9v-OMvs1R2Dv4N2-1" edge="1">
          <mxGeometry x="-0.125" y="60" width="160" relative="1" as="geometry">
            <mxPoint x="270" y="220" as="sourcePoint" />
            <mxPoint x="140" y="200" as="targetPoint" />
            <Array as="points">
              <mxPoint x="390" y="230" />
              <mxPoint x="140" y="230" />
            </Array>
            <mxPoint as="offset" />
          </mxGeometry>
        </mxCell>
        <mxCell id="WCrNI9v-OMvs1R2Dv4N2-38" value="" style="endArrow=block;endSize=16;endFill=0;html=1;rounded=0;exitX=0.5;exitY=0;exitDx=0;exitDy=0;" parent="1" source="WCrNI9v-OMvs1R2Dv4N2-21" edge="1">
          <mxGeometry x="-1" y="128" width="160" relative="1" as="geometry">
            <mxPoint x="600" y="240" as="sourcePoint" />
            <mxPoint x="690" y="200" as="targetPoint" />
            <Array as="points">
              <mxPoint x="610" y="230" />
              <mxPoint x="690" y="230" />
            </Array>
            <mxPoint x="-100" y="48" as="offset" />
          </mxGeometry>
        </mxCell>
        <mxCell id="WCrNI9v-OMvs1R2Dv4N2-39" value="" style="endArrow=block;endSize=16;endFill=0;html=1;rounded=0;exitX=0.5;exitY=0;exitDx=0;exitDy=0;" parent="1" source="WCrNI9v-OMvs1R2Dv4N2-24" edge="1">
          <mxGeometry x="-1" y="128" width="160" relative="1" as="geometry">
            <mxPoint x="790" y="230" as="sourcePoint" />
            <mxPoint x="690" y="200" as="targetPoint" />
            <mxPoint x="-100" y="48" as="offset" />
            <Array as="points">
              <mxPoint x="780" y="230" />
              <mxPoint x="690" y="230" />
            </Array>
          </mxGeometry>
        </mxCell>
        <mxCell id="WCrNI9v-OMvs1R2Dv4N2-51" value="Agent Layer" style="html=1;whiteSpace=wrap;" parent="1" vertex="1">
          <mxGeometry x="-230" y="-60" width="110" height="50" as="geometry" />
        </mxCell>
        <mxCell id="WCrNI9v-OMvs1R2Dv4N2-56" value="&lt;div&gt;&amp;lt;&amp;lt;abstract&amp;gt;&amp;gt;&lt;br&gt;&lt;/div&gt;Obstacle" style="swimlane;fontStyle=1;align=center;verticalAlign=top;childLayout=stackLayout;horizontal=1;startSize=40;horizontalStack=0;resizeParent=1;resizeParentMax=0;resizeLast=0;collapsible=1;marginBottom=0;whiteSpace=wrap;html=1;" parent="1" vertex="1">
          <mxGeometry x="970" width="160" height="58" as="geometry" />
        </mxCell>
        <mxCell id="WCrNI9v-OMvs1R2Dv4N2-57" value="&amp;nbsp;" style="text;strokeColor=none;fillColor=none;align=left;verticalAlign=top;spacingLeft=4;spacingRight=4;overflow=hidden;rotatable=0;points=[[0,0.5],[1,0.5]];portConstraint=eastwest;whiteSpace=wrap;html=1;" parent="WCrNI9v-OMvs1R2Dv4N2-56" vertex="1">
          <mxGeometry y="40" width="160" height="10" as="geometry" />
        </mxCell>
        <mxCell id="WCrNI9v-OMvs1R2Dv4N2-58" value="" style="line;strokeWidth=1;fillColor=none;align=left;verticalAlign=middle;spacingTop=-1;spacingLeft=3;spacingRight=3;rotatable=0;labelPosition=right;points=[];portConstraint=eastwest;strokeColor=inherit;" parent="WCrNI9v-OMvs1R2Dv4N2-56" vertex="1">
          <mxGeometry y="50" width="160" height="8" as="geometry" />
        </mxCell>
        <mxCell id="WCrNI9v-OMvs1R2Dv4N2-59" value="Fence" style="swimlane;fontStyle=1;align=center;verticalAlign=top;childLayout=stackLayout;horizontal=1;startSize=26;horizontalStack=0;resizeParent=1;resizeParentMax=0;resizeLast=0;collapsible=1;marginBottom=0;whiteSpace=wrap;html=1;" parent="1" vertex="1">
          <mxGeometry x="1050" y="90" width="160" height="60" as="geometry" />
        </mxCell>
        <mxCell id="WCrNI9v-OMvs1R2Dv4N2-60" value="&amp;nbsp;" style="text;strokeColor=none;fillColor=none;align=left;verticalAlign=top;spacingLeft=4;spacingRight=4;overflow=hidden;rotatable=0;points=[[0,0.5],[1,0.5]];portConstraint=eastwest;whiteSpace=wrap;html=1;" parent="WCrNI9v-OMvs1R2Dv4N2-59" vertex="1">
          <mxGeometry y="26" width="160" height="26" as="geometry" />
        </mxCell>
        <mxCell id="WCrNI9v-OMvs1R2Dv4N2-61" value="" style="line;strokeWidth=1;fillColor=none;align=left;verticalAlign=middle;spacingTop=-1;spacingLeft=3;spacingRight=3;rotatable=0;labelPosition=right;points=[];portConstraint=eastwest;strokeColor=inherit;" parent="WCrNI9v-OMvs1R2Dv4N2-59" vertex="1">
          <mxGeometry y="52" width="160" height="8" as="geometry" />
        </mxCell>
        <mxCell id="WCrNI9v-OMvs1R2Dv4N2-62" value="SpeedDebuff" style="swimlane;fontStyle=1;align=center;verticalAlign=top;childLayout=stackLayout;horizontal=1;startSize=26;horizontalStack=0;resizeParent=1;resizeParentMax=0;resizeLast=0;collapsible=1;marginBottom=0;whiteSpace=wrap;html=1;" parent="1" vertex="1">
          <mxGeometry x="1050" y="160" width="160" height="60" as="geometry" />
        </mxCell>
        <mxCell id="WCrNI9v-OMvs1R2Dv4N2-63" value="&amp;nbsp;" style="text;strokeColor=none;fillColor=none;align=left;verticalAlign=top;spacingLeft=4;spacingRight=4;overflow=hidden;rotatable=0;points=[[0,0.5],[1,0.5]];portConstraint=eastwest;whiteSpace=wrap;html=1;" parent="WCrNI9v-OMvs1R2Dv4N2-62" vertex="1">
          <mxGeometry y="26" width="160" height="26" as="geometry" />
        </mxCell>
        <mxCell id="WCrNI9v-OMvs1R2Dv4N2-64" value="" style="line;strokeWidth=1;fillColor=none;align=left;verticalAlign=middle;spacingTop=-1;spacingLeft=3;spacingRight=3;rotatable=0;labelPosition=right;points=[];portConstraint=eastwest;strokeColor=inherit;" parent="WCrNI9v-OMvs1R2Dv4N2-62" vertex="1">
          <mxGeometry y="52" width="160" height="8" as="geometry" />
        </mxCell>
        <mxCell id="WCrNI9v-OMvs1R2Dv4N2-65" value="LifeBuff" style="swimlane;fontStyle=1;align=center;verticalAlign=top;childLayout=stackLayout;horizontal=1;startSize=26;horizontalStack=0;resizeParent=1;resizeParentMax=0;resizeLast=0;collapsible=1;marginBottom=0;whiteSpace=wrap;html=1;" parent="1" vertex="1">
          <mxGeometry x="1050" y="230" width="160" height="60" as="geometry" />
        </mxCell>
        <mxCell id="WCrNI9v-OMvs1R2Dv4N2-66" value="&amp;nbsp;" style="text;strokeColor=none;fillColor=none;align=left;verticalAlign=top;spacingLeft=4;spacingRight=4;overflow=hidden;rotatable=0;points=[[0,0.5],[1,0.5]];portConstraint=eastwest;whiteSpace=wrap;html=1;" parent="WCrNI9v-OMvs1R2Dv4N2-65" vertex="1">
          <mxGeometry y="26" width="160" height="26" as="geometry" />
        </mxCell>
        <mxCell id="WCrNI9v-OMvs1R2Dv4N2-67" value="" style="line;strokeWidth=1;fillColor=none;align=left;verticalAlign=middle;spacingTop=-1;spacingLeft=3;spacingRight=3;rotatable=0;labelPosition=right;points=[];portConstraint=eastwest;strokeColor=inherit;" parent="WCrNI9v-OMvs1R2Dv4N2-65" vertex="1">
          <mxGeometry y="52" width="160" height="8" as="geometry" />
        </mxCell>
        <mxCell id="WCrNI9v-OMvs1R2Dv4N2-71" value="" style="endArrow=block;endSize=16;endFill=0;html=1;rounded=0;" parent="1" edge="1">
          <mxGeometry width="160" relative="1" as="geometry">
            <mxPoint x="690" y="230" as="sourcePoint" />
            <mxPoint x="1010" y="60" as="targetPoint" />
            <Array as="points">
              <mxPoint x="1010" y="230" />
            </Array>
          </mxGeometry>
        </mxCell>
        <mxCell id="WCrNI9v-OMvs1R2Dv4N2-78" value="City" style="swimlane;fontStyle=1;align=center;verticalAlign=top;childLayout=stackLayout;horizontal=1;startSize=26;horizontalStack=0;resizeParent=1;resizeParentMax=0;resizeLast=0;collapsible=1;marginBottom=0;whiteSpace=wrap;html=1;" parent="1" vertex="1">
          <mxGeometry x="1330" y="100" width="160" height="60" as="geometry" />
        </mxCell>
        <mxCell id="WCrNI9v-OMvs1R2Dv4N2-79" value="&amp;nbsp;" style="text;strokeColor=none;fillColor=none;align=left;verticalAlign=top;spacingLeft=4;spacingRight=4;overflow=hidden;rotatable=0;points=[[0,0.5],[1,0.5]];portConstraint=eastwest;whiteSpace=wrap;html=1;" parent="WCrNI9v-OMvs1R2Dv4N2-78" vertex="1">
          <mxGeometry y="26" width="160" height="26" as="geometry" />
        </mxCell>
        <mxCell id="WCrNI9v-OMvs1R2Dv4N2-80" value="" style="line;strokeWidth=1;fillColor=none;align=left;verticalAlign=middle;spacingTop=-1;spacingLeft=3;spacingRight=3;rotatable=0;labelPosition=right;points=[];portConstraint=eastwest;strokeColor=inherit;" parent="WCrNI9v-OMvs1R2Dv4N2-78" vertex="1">
          <mxGeometry y="52" width="160" height="8" as="geometry" />
        </mxCell>
        <mxCell id="WCrNI9v-OMvs1R2Dv4N2-81" value="SpeedRadar" style="swimlane;fontStyle=1;align=center;verticalAlign=top;childLayout=stackLayout;horizontal=1;startSize=26;horizontalStack=0;resizeParent=1;resizeParentMax=0;resizeLast=0;collapsible=1;marginBottom=0;whiteSpace=wrap;html=1;" parent="1" vertex="1">
          <mxGeometry x="1050" y="300" width="160" height="60" as="geometry" />
        </mxCell>
        <mxCell id="WCrNI9v-OMvs1R2Dv4N2-82" value="&amp;nbsp;" style="text;strokeColor=none;fillColor=none;align=left;verticalAlign=top;spacingLeft=4;spacingRight=4;overflow=hidden;rotatable=0;points=[[0,0.5],[1,0.5]];portConstraint=eastwest;whiteSpace=wrap;html=1;" parent="WCrNI9v-OMvs1R2Dv4N2-81" vertex="1">
          <mxGeometry y="26" width="160" height="26" as="geometry" />
        </mxCell>
        <mxCell id="WCrNI9v-OMvs1R2Dv4N2-83" value="" style="line;strokeWidth=1;fillColor=none;align=left;verticalAlign=middle;spacingTop=-1;spacingLeft=3;spacingRight=3;rotatable=0;labelPosition=right;points=[];portConstraint=eastwest;strokeColor=inherit;" parent="WCrNI9v-OMvs1R2Dv4N2-81" vertex="1">
          <mxGeometry y="52" width="160" height="8" as="geometry" />
        </mxCell>
        <mxCell id="26ZJcxhWFQi9Z87SPXgo-1" value="&lt;div&gt;&amp;lt;&amp;lt;interface&amp;gt;&amp;gt;&lt;/div&gt;IEffect" style="swimlane;fontStyle=1;align=center;verticalAlign=top;childLayout=stackLayout;horizontal=1;startSize=40;horizontalStack=0;resizeParent=1;resizeParentMax=0;resizeLast=0;collapsible=1;marginBottom=0;whiteSpace=wrap;html=1;" parent="1" vertex="1">
          <mxGeometry x="1150" width="160" height="58" as="geometry" />
        </mxCell>
        <mxCell id="26ZJcxhWFQi9Z87SPXgo-2" value="&amp;nbsp;" style="text;strokeColor=none;fillColor=none;align=left;verticalAlign=top;spacingLeft=4;spacingRight=4;overflow=hidden;rotatable=0;points=[[0,0.5],[1,0.5]];portConstraint=eastwest;whiteSpace=wrap;html=1;" parent="26ZJcxhWFQi9Z87SPXgo-1" vertex="1">
          <mxGeometry y="40" width="160" height="10" as="geometry" />
        </mxCell>
        <mxCell id="26ZJcxhWFQi9Z87SPXgo-3" value="" style="line;strokeWidth=1;fillColor=none;align=left;verticalAlign=middle;spacingTop=-1;spacingLeft=3;spacingRight=3;rotatable=0;labelPosition=right;points=[];portConstraint=eastwest;strokeColor=inherit;" parent="26ZJcxhWFQi9Z87SPXgo-1" vertex="1">
          <mxGeometry y="50" width="160" height="8" as="geometry" />
        </mxCell>
        <mxCell id="26ZJcxhWFQi9Z87SPXgo-6" value="" style="endArrow=block;endSize=16;endFill=0;html=1;rounded=0;entryX=0.5;entryY=1;entryDx=0;entryDy=0;exitX=0.5;exitY=0;exitDx=0;exitDy=0;" parent="1" source="WCrNI9v-OMvs1R2Dv4N2-9" target="WCrNI9v-OMvs1R2Dv4N2-1" edge="1">
          <mxGeometry x="-0.3948" y="-40" width="160" relative="1" as="geometry">
            <mxPoint x="-140" y="190" as="sourcePoint" />
            <mxPoint x="20" y="190" as="targetPoint" />
            <Array as="points">
              <mxPoint x="220" y="230" />
              <mxPoint x="140" y="230" />
            </Array>
            <mxPoint as="offset" />
          </mxGeometry>
        </mxCell>
        <mxCell id="26ZJcxhWFQi9Z87SPXgo-7" value="" style="endArrow=block;endSize=16;endFill=0;html=1;rounded=0;exitX=0;exitY=0.5;exitDx=0;exitDy=0;" parent="1" source="WCrNI9v-OMvs1R2Dv4N2-66" edge="1">
          <mxGeometry x="-0.2799" y="70" width="160" relative="1" as="geometry">
            <mxPoint x="950" y="340" as="sourcePoint" />
            <mxPoint x="1010" y="60" as="targetPoint" />
            <Array as="points">
              <mxPoint x="1010" y="270" />
            </Array>
            <mxPoint as="offset" />
          </mxGeometry>
        </mxCell>
        <mxCell id="26ZJcxhWFQi9Z87SPXgo-8" value="" style="endArrow=block;endSize=16;endFill=0;html=1;rounded=0;exitX=0;exitY=0.5;exitDx=0;exitDy=0;" parent="1" source="WCrNI9v-OMvs1R2Dv4N2-63" edge="1">
          <mxGeometry x="-0.2799" y="70" width="160" relative="1" as="geometry">
            <mxPoint x="970" y="239" as="sourcePoint" />
            <mxPoint x="1010" y="60" as="targetPoint" />
            <Array as="points">
              <mxPoint x="1010" y="200" />
            </Array>
            <mxPoint as="offset" />
          </mxGeometry>
        </mxCell>
        <mxCell id="26ZJcxhWFQi9Z87SPXgo-9" value="" style="endArrow=block;endSize=16;endFill=0;html=1;rounded=0;exitX=0;exitY=0.5;exitDx=0;exitDy=0;" parent="1" source="WCrNI9v-OMvs1R2Dv4N2-60" edge="1">
          <mxGeometry x="-0.2799" y="70" width="160" relative="1" as="geometry">
            <mxPoint x="960" y="239" as="sourcePoint" />
            <mxPoint x="1010" y="60" as="targetPoint" />
            <Array as="points">
              <mxPoint x="1010" y="129" />
            </Array>
            <mxPoint as="offset" />
          </mxGeometry>
        </mxCell>
        <mxCell id="26ZJcxhWFQi9Z87SPXgo-11" value="" style="endArrow=block;dashed=1;endFill=0;endSize=12;html=1;rounded=0;exitX=1;exitY=0.5;exitDx=0;exitDy=0;" parent="1" source="WCrNI9v-OMvs1R2Dv4N2-66" edge="1">
          <mxGeometry width="160" relative="1" as="geometry">
            <mxPoint x="1210" y="210" as="sourcePoint" />
            <mxPoint x="1270" y="60" as="targetPoint" />
            <Array as="points">
              <mxPoint x="1270" y="270" />
            </Array>
          </mxGeometry>
        </mxCell>
        <mxCell id="26ZJcxhWFQi9Z87SPXgo-12" value="" style="endArrow=block;dashed=1;endFill=0;endSize=12;html=1;rounded=0;exitX=1;exitY=0.5;exitDx=0;exitDy=0;" parent="1" source="WCrNI9v-OMvs1R2Dv4N2-63" edge="1">
          <mxGeometry width="160" relative="1" as="geometry">
            <mxPoint x="1260" y="290" as="sourcePoint" />
            <mxPoint x="1250" y="60" as="targetPoint" />
            <Array as="points">
              <mxPoint x="1250" y="200" />
            </Array>
          </mxGeometry>
        </mxCell>
        <mxCell id="26ZJcxhWFQi9Z87SPXgo-13" value="" style="endArrow=block;dashed=1;endFill=0;endSize=12;html=1;rounded=0;exitX=1.014;exitY=0.615;exitDx=0;exitDy=0;exitPerimeter=0;entryX=0.5;entryY=1;entryDx=0;entryDy=0;" parent="1" source="WCrNI9v-OMvs1R2Dv4N2-60" target="26ZJcxhWFQi9Z87SPXgo-1" edge="1">
          <mxGeometry width="160" relative="1" as="geometry">
            <mxPoint x="1230" y="289" as="sourcePoint" />
            <mxPoint x="1280" y="80" as="targetPoint" />
            <Array as="points">
              <mxPoint x="1230" y="132" />
            </Array>
          </mxGeometry>
        </mxCell>
        <mxCell id="26ZJcxhWFQi9Z87SPXgo-15" value="" style="endArrow=diamondThin;endFill=0;endSize=24;html=1;rounded=0;entryX=1.014;entryY=0.405;entryDx=0;entryDy=0;entryPerimeter=0;exitX=0;exitY=0.5;exitDx=0;exitDy=0;" parent="1" source="WCrNI9v-OMvs1R2Dv4N2-56" target="WCrNI9v-OMvs1R2Dv4N2-6" edge="1">
          <mxGeometry width="160" relative="1" as="geometry">
            <mxPoint x="800" y="200" as="sourcePoint" />
            <mxPoint x="960" y="200" as="targetPoint" />
            <Array as="points">
              <mxPoint x="940" y="30" />
              <mxPoint x="940" y="163" />
            </Array>
          </mxGeometry>
        </mxCell>
        <mxCell id="26ZJcxhWFQi9Z87SPXgo-17" value="" style="endArrow=diamondThin;endFill=1;endSize=24;html=1;rounded=0;entryX=0.5;entryY=1;entryDx=0;entryDy=0;exitX=0.5;exitY=0;exitDx=0;exitDy=0;" parent="1" source="WCrNI9v-OMvs1R2Dv4N2-6" target="WCrNI9v-OMvs1R2Dv4N2-30" edge="1">
          <mxGeometry width="160" relative="1" as="geometry">
            <mxPoint x="414" y="100" as="sourcePoint" />
            <mxPoint x="574" y="100" as="targetPoint" />
          </mxGeometry>
        </mxCell>
        <mxCell id="26ZJcxhWFQi9Z87SPXgo-18" value="" style="endArrow=diamondThin;endFill=1;endSize=24;html=1;rounded=0;entryX=0.5;entryY=1;entryDx=0;entryDy=0;exitX=0.5;exitY=0;exitDx=0;exitDy=0;" parent="1" edge="1">
          <mxGeometry width="160" relative="1" as="geometry">
            <mxPoint x="140" y="140" as="sourcePoint" />
            <mxPoint x="140" y="90" as="targetPoint" />
          </mxGeometry>
        </mxCell>
        <mxCell id="kJB5yDUEEWRSCDy5C5Zh-1" value="" style="rounded=0;whiteSpace=wrap;html=1;fillColor=none;" parent="1" vertex="1">
          <mxGeometry x="-56" y="-550" width="916" height="470" as="geometry" />
        </mxCell>
        <mxCell id="kJB5yDUEEWRSCDy5C5Zh-5" value="DataManager" style="swimlane;fontStyle=0;childLayout=stackLayout;horizontal=1;startSize=26;fillColor=none;horizontalStack=0;resizeParent=1;resizeParentMax=0;resizeLast=0;collapsible=1;marginBottom=0;whiteSpace=wrap;html=1;" parent="1" vertex="1">
          <mxGeometry x="88" y="-404" width="140" height="52" as="geometry" />
        </mxCell>
        <mxCell id="kJB5yDUEEWRSCDy5C5Zh-11" value="SceneManager" style="swimlane;fontStyle=0;childLayout=stackLayout;horizontal=1;startSize=26;fillColor=none;horizontalStack=0;resizeParent=1;resizeParentMax=0;resizeLast=0;collapsible=1;marginBottom=0;whiteSpace=wrap;html=1;" parent="1" vertex="1">
          <mxGeometry x="298" y="-404" width="140" height="52" as="geometry" />
        </mxCell>
        <mxCell id="kJB5yDUEEWRSCDy5C5Zh-13" value="StateMachine" style="swimlane;fontStyle=0;childLayout=stackLayout;horizontal=1;startSize=26;fillColor=none;horizontalStack=0;resizeParent=1;resizeParentMax=0;resizeLast=0;collapsible=1;marginBottom=0;whiteSpace=wrap;html=1;" parent="1" vertex="1">
          <mxGeometry x="658" y="-404" width="140" height="52" as="geometry" />
        </mxCell>
        <mxCell id="kJB5yDUEEWRSCDy5C5Zh-16" value="GameManager" style="swimlane;fontStyle=0;childLayout=stackLayout;horizontal=1;startSize=26;fillColor=none;horizontalStack=0;resizeParent=1;resizeParentMax=0;resizeLast=0;collapsible=1;marginBottom=0;whiteSpace=wrap;html=1;" parent="1" vertex="1">
          <mxGeometry x="390" y="-500" width="140" height="52" as="geometry" />
        </mxCell>
        <mxCell id="kJB5yDUEEWRSCDy5C5Zh-17" value="Managers Layer" style="html=1;whiteSpace=wrap;" parent="1" vertex="1">
          <mxGeometry x="-56" y="-590" width="150" height="40" as="geometry" />
        </mxCell>
        <mxCell id="kJB5yDUEEWRSCDy5C5Zh-22" value="" style="endArrow=block;endSize=16;endFill=0;html=1;rounded=0;exitX=0;exitY=0.5;exitDx=0;exitDy=0;" parent="1" source="WCrNI9v-OMvs1R2Dv4N2-82" edge="1">
          <mxGeometry x="-0.2799" y="70" width="160" relative="1" as="geometry">
            <mxPoint x="1030" y="329" as="sourcePoint" />
            <mxPoint x="1010" y="60" as="targetPoint" />
            <Array as="points">
              <mxPoint x="1010" y="339" />
            </Array>
            <mxPoint as="offset" />
          </mxGeometry>
        </mxCell>
        <mxCell id="kJB5yDUEEWRSCDy5C5Zh-23" value="" style="endArrow=diamondThin;endFill=0;endSize=24;html=1;rounded=0;entryX=1;entryY=0.5;entryDx=0;entryDy=0;exitX=0;exitY=0.5;exitDx=0;exitDy=0;" parent="1" source="WCrNI9v-OMvs1R2Dv4N2-82" target="WCrNI9v-OMvs1R2Dv4N2-25" edge="1">
          <mxGeometry width="160" relative="1" as="geometry">
            <mxPoint x="938" y="310" as="sourcePoint" />
            <mxPoint x="740" y="444" as="targetPoint" />
            <Array as="points">
              <mxPoint x="940" y="340" />
              <mxPoint x="940" y="300" />
            </Array>
          </mxGeometry>
        </mxCell>
        <mxCell id="kJB5yDUEEWRSCDy5C5Zh-24" value="" style="endArrow=block;dashed=1;endFill=0;endSize=12;html=1;rounded=0;" parent="1" edge="1">
          <mxGeometry width="160" relative="1" as="geometry">
            <mxPoint x="770" y="320" as="sourcePoint" />
            <mxPoint x="1290" y="60" as="targetPoint" />
            <Array as="points">
              <mxPoint x="770" y="370" />
              <mxPoint x="1290" y="370" />
            </Array>
          </mxGeometry>
        </mxCell>
        <mxCell id="kJB5yDUEEWRSCDy5C5Zh-25" value="&lt;div&gt;&lt;span style=&quot;background-color: initial;&quot;&gt;ObstacleFactory&lt;/span&gt;&lt;br&gt;&lt;/div&gt;" style="swimlane;fontStyle=1;align=center;verticalAlign=top;childLayout=stackLayout;horizontal=1;startSize=26;horizontalStack=0;resizeParent=1;resizeParentMax=0;resizeLast=0;collapsible=1;marginBottom=0;whiteSpace=wrap;html=1;" parent="1" vertex="1">
          <mxGeometry x="970" y="-100" width="160" height="60" as="geometry" />
        </mxCell>
        <mxCell id="kJB5yDUEEWRSCDy5C5Zh-26" value="&amp;nbsp;" style="text;strokeColor=none;fillColor=none;align=left;verticalAlign=top;spacingLeft=4;spacingRight=4;overflow=hidden;rotatable=0;points=[[0,0.5],[1,0.5]];portConstraint=eastwest;whiteSpace=wrap;html=1;" parent="kJB5yDUEEWRSCDy5C5Zh-25" vertex="1">
          <mxGeometry y="26" width="160" height="26" as="geometry" />
        </mxCell>
        <mxCell id="kJB5yDUEEWRSCDy5C5Zh-27" value="" style="line;strokeWidth=1;fillColor=none;align=left;verticalAlign=middle;spacingTop=-1;spacingLeft=3;spacingRight=3;rotatable=0;labelPosition=right;points=[];portConstraint=eastwest;strokeColor=inherit;" parent="kJB5yDUEEWRSCDy5C5Zh-25" vertex="1">
          <mxGeometry y="52" width="160" height="8" as="geometry" />
        </mxCell>
        <mxCell id="kJB5yDUEEWRSCDy5C5Zh-28" value="" style="endArrow=open;endSize=12;dashed=1;html=1;rounded=0;entryX=0.5;entryY=0;entryDx=0;entryDy=0;exitX=0.5;exitY=1;exitDx=0;exitDy=0;" parent="1" source="kJB5yDUEEWRSCDy5C5Zh-25" target="WCrNI9v-OMvs1R2Dv4N2-56" edge="1">
          <mxGeometry x="-0.125" y="60" width="160" relative="1" as="geometry">
            <mxPoint x="1040" y="-40" as="sourcePoint" />
            <mxPoint x="1310" y="-60" as="targetPoint" />
            <mxPoint as="offset" />
          </mxGeometry>
        </mxCell>
        <mxCell id="kJB5yDUEEWRSCDy5C5Zh-29" value="TaxiApp" style="swimlane;fontStyle=1;align=center;verticalAlign=top;childLayout=stackLayout;horizontal=1;startSize=26;horizontalStack=0;resizeParent=1;resizeParentMax=0;resizeLast=0;collapsible=1;marginBottom=0;whiteSpace=wrap;html=1;" parent="1" vertex="1">
          <mxGeometry x="1380" y="330" width="160" height="60" as="geometry" />
        </mxCell>
        <mxCell id="kJB5yDUEEWRSCDy5C5Zh-30" value="&amp;nbsp;" style="text;strokeColor=none;fillColor=none;align=left;verticalAlign=top;spacingLeft=4;spacingRight=4;overflow=hidden;rotatable=0;points=[[0,0.5],[1,0.5]];portConstraint=eastwest;whiteSpace=wrap;html=1;" parent="kJB5yDUEEWRSCDy5C5Zh-29" vertex="1">
          <mxGeometry y="26" width="160" height="26" as="geometry" />
        </mxCell>
        <mxCell id="kJB5yDUEEWRSCDy5C5Zh-31" value="" style="line;strokeWidth=1;fillColor=none;align=left;verticalAlign=middle;spacingTop=-1;spacingLeft=3;spacingRight=3;rotatable=0;labelPosition=right;points=[];portConstraint=eastwest;strokeColor=inherit;" parent="kJB5yDUEEWRSCDy5C5Zh-29" vertex="1">
          <mxGeometry y="52" width="160" height="8" as="geometry" />
        </mxCell>
        <mxCell id="kJB5yDUEEWRSCDy5C5Zh-32" value="" style="endArrow=diamondThin;endFill=1;endSize=24;html=1;rounded=0;entryX=0.5;entryY=1;entryDx=0;entryDy=0;exitX=0;exitY=0.5;exitDx=0;exitDy=0;" parent="1" source="kJB5yDUEEWRSCDy5C5Zh-30" target="WCrNI9v-OMvs1R2Dv4N2-21" edge="1">
          <mxGeometry width="160" relative="1" as="geometry">
            <mxPoint x="470" y="390" as="sourcePoint" />
            <mxPoint x="630" y="390" as="targetPoint" />
            <Array as="points">
              <mxPoint x="1330" y="370" />
              <mxPoint x="1330" y="390" />
              <mxPoint x="610" y="390" />
            </Array>
          </mxGeometry>
        </mxCell>
        <mxCell id="kJB5yDUEEWRSCDy5C5Zh-33" value="Score" style="swimlane;fontStyle=1;align=center;verticalAlign=top;childLayout=stackLayout;horizontal=1;startSize=26;horizontalStack=0;resizeParent=1;resizeParentMax=0;resizeLast=0;collapsible=1;marginBottom=0;whiteSpace=wrap;html=1;" parent="1" vertex="1">
          <mxGeometry x="-32" y="-330" width="160" height="60" as="geometry" />
        </mxCell>
        <mxCell id="kJB5yDUEEWRSCDy5C5Zh-34" value="&amp;nbsp;" style="text;strokeColor=none;fillColor=none;align=left;verticalAlign=top;spacingLeft=4;spacingRight=4;overflow=hidden;rotatable=0;points=[[0,0.5],[1,0.5]];portConstraint=eastwest;whiteSpace=wrap;html=1;" parent="kJB5yDUEEWRSCDy5C5Zh-33" vertex="1">
          <mxGeometry y="26" width="160" height="26" as="geometry" />
        </mxCell>
        <mxCell id="kJB5yDUEEWRSCDy5C5Zh-35" value="" style="line;strokeWidth=1;fillColor=none;align=left;verticalAlign=middle;spacingTop=-1;spacingLeft=3;spacingRight=3;rotatable=0;labelPosition=right;points=[];portConstraint=eastwest;strokeColor=inherit;" parent="kJB5yDUEEWRSCDy5C5Zh-33" vertex="1">
          <mxGeometry y="52" width="160" height="8" as="geometry" />
        </mxCell>
        <mxCell id="kJB5yDUEEWRSCDy5C5Zh-36" value="Money" style="swimlane;fontStyle=1;align=center;verticalAlign=top;childLayout=stackLayout;horizontal=1;startSize=26;horizontalStack=0;resizeParent=1;resizeParentMax=0;resizeLast=0;collapsible=1;marginBottom=0;whiteSpace=wrap;html=1;" parent="1" vertex="1">
          <mxGeometry x="-32" y="-260" width="160" height="60" as="geometry" />
        </mxCell>
        <mxCell id="kJB5yDUEEWRSCDy5C5Zh-37" value="&amp;nbsp;" style="text;strokeColor=none;fillColor=none;align=left;verticalAlign=top;spacingLeft=4;spacingRight=4;overflow=hidden;rotatable=0;points=[[0,0.5],[1,0.5]];portConstraint=eastwest;whiteSpace=wrap;html=1;" parent="kJB5yDUEEWRSCDy5C5Zh-36" vertex="1">
          <mxGeometry y="26" width="160" height="26" as="geometry" />
        </mxCell>
        <mxCell id="kJB5yDUEEWRSCDy5C5Zh-38" value="" style="line;strokeWidth=1;fillColor=none;align=left;verticalAlign=middle;spacingTop=-1;spacingLeft=3;spacingRight=3;rotatable=0;labelPosition=right;points=[];portConstraint=eastwest;strokeColor=inherit;" parent="kJB5yDUEEWRSCDy5C5Zh-36" vertex="1">
          <mxGeometry y="52" width="160" height="8" as="geometry" />
        </mxCell>
        <mxCell id="kJB5yDUEEWRSCDy5C5Zh-39" value="TaxiSkins" style="swimlane;fontStyle=1;align=center;verticalAlign=top;childLayout=stackLayout;horizontal=1;startSize=26;horizontalStack=0;resizeParent=1;resizeParentMax=0;resizeLast=0;collapsible=1;marginBottom=0;whiteSpace=wrap;html=1;" parent="1" vertex="1">
          <mxGeometry x="-32" y="-190" width="160" height="60" as="geometry" />
        </mxCell>
        <mxCell id="kJB5yDUEEWRSCDy5C5Zh-40" value="&amp;nbsp;" style="text;strokeColor=none;fillColor=none;align=left;verticalAlign=top;spacingLeft=4;spacingRight=4;overflow=hidden;rotatable=0;points=[[0,0.5],[1,0.5]];portConstraint=eastwest;whiteSpace=wrap;html=1;" parent="kJB5yDUEEWRSCDy5C5Zh-39" vertex="1">
          <mxGeometry y="26" width="160" height="26" as="geometry" />
        </mxCell>
        <mxCell id="kJB5yDUEEWRSCDy5C5Zh-41" value="" style="line;strokeWidth=1;fillColor=none;align=left;verticalAlign=middle;spacingTop=-1;spacingLeft=3;spacingRight=3;rotatable=0;labelPosition=right;points=[];portConstraint=eastwest;strokeColor=inherit;" parent="kJB5yDUEEWRSCDy5C5Zh-39" vertex="1">
          <mxGeometry y="52" width="160" height="8" as="geometry" />
        </mxCell>
        <mxCell id="kJB5yDUEEWRSCDy5C5Zh-42" value="" style="endArrow=diamondThin;endFill=1;endSize=24;html=1;rounded=0;exitX=1;exitY=0.5;exitDx=0;exitDy=0;" parent="1" source="kJB5yDUEEWRSCDy5C5Zh-40" edge="1">
          <mxGeometry width="160" relative="1" as="geometry">
            <mxPoint x="130" y="-220" as="sourcePoint" />
            <mxPoint x="190" y="-350" as="targetPoint" />
            <Array as="points">
              <mxPoint x="190" y="-151" />
            </Array>
          </mxGeometry>
        </mxCell>
        <mxCell id="kJB5yDUEEWRSCDy5C5Zh-43" value="" style="endArrow=diamondThin;endFill=1;endSize=24;html=1;rounded=0;exitX=1;exitY=0.5;exitDx=0;exitDy=0;" parent="1" source="kJB5yDUEEWRSCDy5C5Zh-37" edge="1">
          <mxGeometry width="160" relative="1" as="geometry">
            <mxPoint x="163" y="-151" as="sourcePoint" />
            <mxPoint x="190" y="-350" as="targetPoint" />
            <Array as="points">
              <mxPoint x="190" y="-221" />
            </Array>
          </mxGeometry>
        </mxCell>
        <mxCell id="kJB5yDUEEWRSCDy5C5Zh-44" value="" style="endArrow=diamondThin;endFill=1;endSize=24;html=1;rounded=0;exitX=1;exitY=0.5;exitDx=0;exitDy=0;" parent="1" source="kJB5yDUEEWRSCDy5C5Zh-34" edge="1">
          <mxGeometry width="160" relative="1" as="geometry">
            <mxPoint x="187.5" y="-211" as="sourcePoint" />
            <mxPoint x="190" y="-350" as="targetPoint" />
            <Array as="points">
              <mxPoint x="190" y="-291" />
            </Array>
          </mxGeometry>
        </mxCell>
        <mxCell id="kJB5yDUEEWRSCDy5C5Zh-45" value="TitleScreen" style="swimlane;fontStyle=1;align=center;verticalAlign=top;childLayout=stackLayout;horizontal=1;startSize=26;horizontalStack=0;resizeParent=1;resizeParentMax=0;resizeLast=0;collapsible=1;marginBottom=0;whiteSpace=wrap;html=1;" parent="1" vertex="1">
          <mxGeometry x="220" y="-330" width="160" height="60" as="geometry" />
        </mxCell>
        <mxCell id="kJB5yDUEEWRSCDy5C5Zh-46" value="&amp;nbsp;" style="text;strokeColor=none;fillColor=none;align=left;verticalAlign=top;spacingLeft=4;spacingRight=4;overflow=hidden;rotatable=0;points=[[0,0.5],[1,0.5]];portConstraint=eastwest;whiteSpace=wrap;html=1;" parent="kJB5yDUEEWRSCDy5C5Zh-45" vertex="1">
          <mxGeometry y="26" width="160" height="26" as="geometry" />
        </mxCell>
        <mxCell id="kJB5yDUEEWRSCDy5C5Zh-47" value="" style="line;strokeWidth=1;fillColor=none;align=left;verticalAlign=middle;spacingTop=-1;spacingLeft=3;spacingRight=3;rotatable=0;labelPosition=right;points=[];portConstraint=eastwest;strokeColor=inherit;" parent="kJB5yDUEEWRSCDy5C5Zh-45" vertex="1">
          <mxGeometry y="52" width="160" height="8" as="geometry" />
        </mxCell>
        <mxCell id="kJB5yDUEEWRSCDy5C5Zh-48" value="MainLoop" style="swimlane;fontStyle=1;align=center;verticalAlign=top;childLayout=stackLayout;horizontal=1;startSize=26;horizontalStack=0;resizeParent=1;resizeParentMax=0;resizeLast=0;collapsible=1;marginBottom=0;whiteSpace=wrap;html=1;" parent="1" vertex="1">
          <mxGeometry x="220" y="-260" width="160" height="60" as="geometry" />
        </mxCell>
        <mxCell id="kJB5yDUEEWRSCDy5C5Zh-49" value="&amp;nbsp;" style="text;strokeColor=none;fillColor=none;align=left;verticalAlign=top;spacingLeft=4;spacingRight=4;overflow=hidden;rotatable=0;points=[[0,0.5],[1,0.5]];portConstraint=eastwest;whiteSpace=wrap;html=1;" parent="kJB5yDUEEWRSCDy5C5Zh-48" vertex="1">
          <mxGeometry y="26" width="160" height="26" as="geometry" />
        </mxCell>
        <mxCell id="kJB5yDUEEWRSCDy5C5Zh-50" value="" style="line;strokeWidth=1;fillColor=none;align=left;verticalAlign=middle;spacingTop=-1;spacingLeft=3;spacingRight=3;rotatable=0;labelPosition=right;points=[];portConstraint=eastwest;strokeColor=inherit;" parent="kJB5yDUEEWRSCDy5C5Zh-48" vertex="1">
          <mxGeometry y="52" width="160" height="8" as="geometry" />
        </mxCell>
        <mxCell id="kJB5yDUEEWRSCDy5C5Zh-51" value="FinalScreen" style="swimlane;fontStyle=1;align=center;verticalAlign=top;childLayout=stackLayout;horizontal=1;startSize=26;horizontalStack=0;resizeParent=1;resizeParentMax=0;resizeLast=0;collapsible=1;marginBottom=0;whiteSpace=wrap;html=1;" parent="1" vertex="1">
          <mxGeometry x="220" y="-190" width="160" height="60" as="geometry" />
        </mxCell>
        <mxCell id="kJB5yDUEEWRSCDy5C5Zh-52" value="&amp;nbsp;" style="text;strokeColor=none;fillColor=none;align=left;verticalAlign=top;spacingLeft=4;spacingRight=4;overflow=hidden;rotatable=0;points=[[0,0.5],[1,0.5]];portConstraint=eastwest;whiteSpace=wrap;html=1;" parent="kJB5yDUEEWRSCDy5C5Zh-51" vertex="1">
          <mxGeometry y="26" width="160" height="26" as="geometry" />
        </mxCell>
        <mxCell id="kJB5yDUEEWRSCDy5C5Zh-53" value="" style="line;strokeWidth=1;fillColor=none;align=left;verticalAlign=middle;spacingTop=-1;spacingLeft=3;spacingRight=3;rotatable=0;labelPosition=right;points=[];portConstraint=eastwest;strokeColor=inherit;" parent="kJB5yDUEEWRSCDy5C5Zh-51" vertex="1">
          <mxGeometry y="52" width="160" height="8" as="geometry" />
        </mxCell>
        <mxCell id="kJB5yDUEEWRSCDy5C5Zh-54" value="" style="endArrow=diamondThin;endFill=1;endSize=24;html=1;rounded=0;entryX=0.75;entryY=1;entryDx=0;entryDy=0;exitX=1;exitY=0.5;exitDx=0;exitDy=0;" parent="1" source="kJB5yDUEEWRSCDy5C5Zh-46" target="kJB5yDUEEWRSCDy5C5Zh-11" edge="1">
          <mxGeometry width="160" relative="1" as="geometry">
            <mxPoint x="470" y="-280" as="sourcePoint" />
            <mxPoint x="630" y="-280" as="targetPoint" />
            <Array as="points">
              <mxPoint x="403" y="-291" />
            </Array>
          </mxGeometry>
        </mxCell>
        <mxCell id="kJB5yDUEEWRSCDy5C5Zh-55" value="" style="endArrow=diamondThin;endFill=1;endSize=24;html=1;rounded=0;exitX=1;exitY=0.5;exitDx=0;exitDy=0;entryX=0.75;entryY=1;entryDx=0;entryDy=0;" parent="1" target="kJB5yDUEEWRSCDy5C5Zh-11" edge="1">
          <mxGeometry width="160" relative="1" as="geometry">
            <mxPoint x="380" y="-219" as="sourcePoint" />
            <mxPoint x="403" y="-350" as="targetPoint" />
            <Array as="points">
              <mxPoint x="403" y="-219" />
            </Array>
          </mxGeometry>
        </mxCell>
        <mxCell id="kJB5yDUEEWRSCDy5C5Zh-56" value="" style="endArrow=diamondThin;endFill=1;endSize=24;html=1;rounded=0;entryX=0.75;entryY=1;entryDx=0;entryDy=0;exitX=1;exitY=0.5;exitDx=0;exitDy=0;" parent="1" target="kJB5yDUEEWRSCDy5C5Zh-11" edge="1">
          <mxGeometry width="160" relative="1" as="geometry">
            <mxPoint x="380" y="-148" as="sourcePoint" />
            <mxPoint x="403" y="-209" as="targetPoint" />
            <Array as="points">
              <mxPoint x="403" y="-148" />
            </Array>
          </mxGeometry>
        </mxCell>
        <mxCell id="kJB5yDUEEWRSCDy5C5Zh-57" value="AIAgent" style="swimlane;fontStyle=1;align=center;verticalAlign=top;childLayout=stackLayout;horizontal=1;startSize=26;horizontalStack=0;resizeParent=1;resizeParentMax=0;resizeLast=0;collapsible=1;marginBottom=0;whiteSpace=wrap;html=1;" parent="1" vertex="1">
          <mxGeometry x="462" y="-180" width="160" height="60" as="geometry" />
        </mxCell>
        <mxCell id="kJB5yDUEEWRSCDy5C5Zh-58" value="&amp;nbsp;" style="text;strokeColor=none;fillColor=none;align=left;verticalAlign=top;spacingLeft=4;spacingRight=4;overflow=hidden;rotatable=0;points=[[0,0.5],[1,0.5]];portConstraint=eastwest;whiteSpace=wrap;html=1;" parent="kJB5yDUEEWRSCDy5C5Zh-57" vertex="1">
          <mxGeometry y="26" width="160" height="26" as="geometry" />
        </mxCell>
        <mxCell id="kJB5yDUEEWRSCDy5C5Zh-59" value="" style="line;strokeWidth=1;fillColor=none;align=left;verticalAlign=middle;spacingTop=-1;spacingLeft=3;spacingRight=3;rotatable=0;labelPosition=right;points=[];portConstraint=eastwest;strokeColor=inherit;" parent="kJB5yDUEEWRSCDy5C5Zh-57" vertex="1">
          <mxGeometry y="52" width="160" height="8" as="geometry" />
        </mxCell>
        <mxCell id="kJB5yDUEEWRSCDy5C5Zh-60" value="Events" style="swimlane;fontStyle=1;align=center;verticalAlign=top;childLayout=stackLayout;horizontal=1;startSize=26;horizontalStack=0;resizeParent=1;resizeParentMax=0;resizeLast=0;collapsible=1;marginBottom=0;whiteSpace=wrap;html=1;" parent="1" vertex="1">
          <mxGeometry x="648" y="-180" width="160" height="60" as="geometry" />
        </mxCell>
        <mxCell id="kJB5yDUEEWRSCDy5C5Zh-61" value="&amp;nbsp;" style="text;strokeColor=none;fillColor=none;align=left;verticalAlign=top;spacingLeft=4;spacingRight=4;overflow=hidden;rotatable=0;points=[[0,0.5],[1,0.5]];portConstraint=eastwest;whiteSpace=wrap;html=1;" parent="kJB5yDUEEWRSCDy5C5Zh-60" vertex="1">
          <mxGeometry y="26" width="160" height="26" as="geometry" />
        </mxCell>
        <mxCell id="kJB5yDUEEWRSCDy5C5Zh-62" value="" style="line;strokeWidth=1;fillColor=none;align=left;verticalAlign=middle;spacingTop=-1;spacingLeft=3;spacingRight=3;rotatable=0;labelPosition=right;points=[];portConstraint=eastwest;strokeColor=inherit;" parent="kJB5yDUEEWRSCDy5C5Zh-60" vertex="1">
          <mxGeometry y="52" width="160" height="8" as="geometry" />
        </mxCell>
        <mxCell id="kJB5yDUEEWRSCDy5C5Zh-63" value="" style="endArrow=none;html=1;edgeStyle=orthogonalEdgeStyle;rounded=0;entryX=0.5;entryY=1;entryDx=0;entryDy=0;exitX=0.5;exitY=0;exitDx=0;exitDy=0;" parent="1" source="WCrNI9v-OMvs1R2Dv4N2-30" target="kJB5yDUEEWRSCDy5C5Zh-60" edge="1">
          <mxGeometry relative="1" as="geometry">
            <mxPoint x="628" y="-50" as="sourcePoint" />
            <mxPoint x="788" y="-50" as="targetPoint" />
            <Array as="points">
              <mxPoint x="690" y="-50" />
              <mxPoint x="728" y="-50" />
            </Array>
          </mxGeometry>
        </mxCell>
        <mxCell id="kJB5yDUEEWRSCDy5C5Zh-66" value="" style="endArrow=none;html=1;edgeStyle=orthogonalEdgeStyle;rounded=0;entryX=0.5;entryY=1;entryDx=0;entryDy=0;" parent="1" target="kJB5yDUEEWRSCDy5C5Zh-57" edge="1">
          <mxGeometry relative="1" as="geometry">
            <mxPoint x="690" y="30" as="sourcePoint" />
            <mxPoint x="548" y="-110" as="targetPoint" />
            <Array as="points">
              <mxPoint x="690" y="-50" />
              <mxPoint x="542" y="-50" />
            </Array>
          </mxGeometry>
        </mxCell>
        <mxCell id="kJB5yDUEEWRSCDy5C5Zh-67" value="SoundManager" style="swimlane;fontStyle=0;childLayout=stackLayout;horizontal=1;startSize=26;fillColor=none;horizontalStack=0;resizeParent=1;resizeParentMax=0;resizeLast=0;collapsible=1;marginBottom=0;whiteSpace=wrap;html=1;" parent="1" vertex="1">
          <mxGeometry x="482" y="-404" width="140" height="52" as="geometry" />
        </mxCell>
        <mxCell id="kJB5yDUEEWRSCDy5C5Zh-68" value="" style="endArrow=diamondThin;endFill=1;endSize=24;html=1;rounded=0;exitX=0.5;exitY=0;exitDx=0;exitDy=0;" parent="1" source="kJB5yDUEEWRSCDy5C5Zh-5" edge="1">
          <mxGeometry width="160" relative="1" as="geometry">
            <mxPoint x="170" y="-460" as="sourcePoint" />
            <mxPoint x="460" y="-450" as="targetPoint" />
            <Array as="points">
              <mxPoint x="158" y="-420" />
              <mxPoint x="460" y="-420" />
            </Array>
          </mxGeometry>
        </mxCell>
        <mxCell id="kJB5yDUEEWRSCDy5C5Zh-69" value="" style="endArrow=diamondThin;endFill=1;endSize=24;html=1;rounded=0;exitX=0.5;exitY=0;exitDx=0;exitDy=0;" parent="1" source="kJB5yDUEEWRSCDy5C5Zh-11" edge="1">
          <mxGeometry width="160" relative="1" as="geometry">
            <mxPoint x="426" y="-413" as="sourcePoint" />
            <mxPoint x="460" y="-450" as="targetPoint" />
            <Array as="points">
              <mxPoint x="368" y="-420" />
              <mxPoint x="460" y="-420" />
            </Array>
          </mxGeometry>
        </mxCell>
        <mxCell id="kJB5yDUEEWRSCDy5C5Zh-72" value="" style="endArrow=diamondThin;endFill=1;endSize=24;html=1;rounded=0;exitX=0.5;exitY=0;exitDx=0;exitDy=0;" parent="1" source="kJB5yDUEEWRSCDy5C5Zh-67" edge="1">
          <mxGeometry width="160" relative="1" as="geometry">
            <mxPoint x="550" y="-424" as="sourcePoint" />
            <mxPoint x="460" y="-450" as="targetPoint" />
            <Array as="points">
              <mxPoint x="552" y="-420" />
              <mxPoint x="460" y="-420" />
            </Array>
          </mxGeometry>
        </mxCell>
        <mxCell id="kJB5yDUEEWRSCDy5C5Zh-74" value="" style="endArrow=diamondThin;endFill=1;endSize=24;html=1;rounded=0;exitX=0.5;exitY=0;exitDx=0;exitDy=0;" parent="1" source="kJB5yDUEEWRSCDy5C5Zh-13" edge="1">
          <mxGeometry width="160" relative="1" as="geometry">
            <mxPoint x="632" y="-414" as="sourcePoint" />
            <mxPoint x="460" y="-450" as="targetPoint" />
            <Array as="points">
              <mxPoint x="728" y="-420" />
              <mxPoint x="460" y="-420" />
            </Array>
          </mxGeometry>
        </mxCell>
        <mxCell id="kJB5yDUEEWRSCDy5C5Zh-75" value="Scene" style="swimlane;fontStyle=1;align=center;verticalAlign=top;childLayout=stackLayout;horizontal=1;startSize=26;horizontalStack=0;resizeParent=1;resizeParentMax=0;resizeLast=0;collapsible=1;marginBottom=0;whiteSpace=wrap;html=1;" parent="1" vertex="1">
          <mxGeometry x="1330" width="160" height="60" as="geometry" />
        </mxCell>
        <mxCell id="kJB5yDUEEWRSCDy5C5Zh-76" value="&amp;nbsp;" style="text;strokeColor=none;fillColor=none;align=left;verticalAlign=top;spacingLeft=4;spacingRight=4;overflow=hidden;rotatable=0;points=[[0,0.5],[1,0.5]];portConstraint=eastwest;whiteSpace=wrap;html=1;" parent="kJB5yDUEEWRSCDy5C5Zh-75" vertex="1">
          <mxGeometry y="26" width="160" height="26" as="geometry" />
        </mxCell>
        <mxCell id="kJB5yDUEEWRSCDy5C5Zh-77" value="" style="line;strokeWidth=1;fillColor=none;align=left;verticalAlign=middle;spacingTop=-1;spacingLeft=3;spacingRight=3;rotatable=0;labelPosition=right;points=[];portConstraint=eastwest;strokeColor=inherit;" parent="kJB5yDUEEWRSCDy5C5Zh-75" vertex="1">
          <mxGeometry y="52" width="160" height="8" as="geometry" />
        </mxCell>
        <mxCell id="kJB5yDUEEWRSCDy5C5Zh-81" value="Street" style="swimlane;fontStyle=1;align=center;verticalAlign=top;childLayout=stackLayout;horizontal=1;startSize=26;horizontalStack=0;resizeParent=1;resizeParentMax=0;resizeLast=0;collapsible=1;marginBottom=0;whiteSpace=wrap;html=1;" parent="1" vertex="1">
          <mxGeometry x="1390" y="190" width="160" height="60" as="geometry" />
        </mxCell>
        <mxCell id="kJB5yDUEEWRSCDy5C5Zh-82" value="&amp;nbsp;" style="text;strokeColor=none;fillColor=none;align=left;verticalAlign=top;spacingLeft=4;spacingRight=4;overflow=hidden;rotatable=0;points=[[0,0.5],[1,0.5]];portConstraint=eastwest;whiteSpace=wrap;html=1;" parent="kJB5yDUEEWRSCDy5C5Zh-81" vertex="1">
          <mxGeometry y="26" width="160" height="26" as="geometry" />
        </mxCell>
        <mxCell id="kJB5yDUEEWRSCDy5C5Zh-83" value="" style="line;strokeWidth=1;fillColor=none;align=left;verticalAlign=middle;spacingTop=-1;spacingLeft=3;spacingRight=3;rotatable=0;labelPosition=right;points=[];portConstraint=eastwest;strokeColor=inherit;" parent="kJB5yDUEEWRSCDy5C5Zh-81" vertex="1">
          <mxGeometry y="52" width="160" height="8" as="geometry" />
        </mxCell>
        <mxCell id="kJB5yDUEEWRSCDy5C5Zh-84" value="" style="endArrow=diamondThin;endFill=1;endSize=24;html=1;rounded=0;exitX=0;exitY=0.5;exitDx=0;exitDy=0;" parent="1" source="kJB5yDUEEWRSCDy5C5Zh-82" edge="1">
          <mxGeometry width="160" relative="1" as="geometry">
            <mxPoint x="1420" y="300" as="sourcePoint" />
            <mxPoint x="1360" y="160" as="targetPoint" />
            <Array as="points">
              <mxPoint x="1360" y="229" />
            </Array>
          </mxGeometry>
        </mxCell>
        <mxCell id="kJB5yDUEEWRSCDy5C5Zh-85" value="" style="endArrow=diamondThin;endFill=1;endSize=24;html=1;rounded=0;exitX=0.5;exitY=1;exitDx=0;exitDy=0;entryX=0.5;entryY=0;entryDx=0;entryDy=0;" parent="1" source="kJB5yDUEEWRSCDy5C5Zh-75" target="WCrNI9v-OMvs1R2Dv4N2-78" edge="1">
          <mxGeometry width="160" relative="1" as="geometry">
            <mxPoint x="1310" y="74.5" as="sourcePoint" />
            <mxPoint x="1280" y="5.5" as="targetPoint" />
            <Array as="points" />
          </mxGeometry>
        </mxCell>
        <mxCell id="kJB5yDUEEWRSCDy5C5Zh-92" value="Scene Layer" style="html=1;whiteSpace=wrap;" parent="1" vertex="1">
          <mxGeometry x="930" y="-170" width="110" height="50" as="geometry" />
        </mxCell>
        <mxCell id="kJB5yDUEEWRSCDy5C5Zh-93" value="" style="endArrow=none;html=1;edgeStyle=orthogonalEdgeStyle;rounded=0;entryX=0.5;entryY=0;entryDx=0;entryDy=0;exitX=0.5;exitY=1;exitDx=0;exitDy=0;" parent="1" source="kJB5yDUEEWRSCDy5C5Zh-13" target="kJB5yDUEEWRSCDy5C5Zh-60" edge="1">
          <mxGeometry relative="1" as="geometry">
            <mxPoint x="622" y="-290" as="sourcePoint" />
            <mxPoint x="782" y="-290" as="targetPoint" />
          </mxGeometry>
        </mxCell>
        <mxCell id="kJB5yDUEEWRSCDy5C5Zh-96" value="UserInterface" style="swimlane;fontStyle=0;childLayout=stackLayout;horizontal=1;startSize=26;fillColor=none;horizontalStack=0;resizeParent=1;resizeParentMax=0;resizeLast=0;collapsible=1;marginBottom=0;whiteSpace=wrap;html=1;" parent="1" vertex="1">
          <mxGeometry x="482" y="-312" width="140" height="52" as="geometry" />
        </mxCell>
        <mxCell id="kJB5yDUEEWRSCDy5C5Zh-97" value="" style="endArrow=diamondThin;endFill=1;endSize=24;html=1;rounded=0;exitX=0;exitY=0.75;exitDx=0;exitDy=0;entryX=0.5;entryY=1;entryDx=0;entryDy=0;" parent="1" source="kJB5yDUEEWRSCDy5C5Zh-96" target="kJB5yDUEEWRSCDy5C5Zh-16" edge="1">
          <mxGeometry width="160" relative="1" as="geometry">
            <mxPoint x="542" y="-324" as="sourcePoint" />
            <mxPoint x="450" y="-370" as="targetPoint" />
            <Array as="points">
              <mxPoint x="460" y="-273" />
            </Array>
          </mxGeometry>
        </mxCell>
        <mxCell id="kJB5yDUEEWRSCDy5C5Zh-98" value="" style="endArrow=none;html=1;edgeStyle=orthogonalEdgeStyle;rounded=0;entryX=0.25;entryY=0;entryDx=0;entryDy=0;exitX=0.5;exitY=1;exitDx=0;exitDy=0;" parent="1" source="kJB5yDUEEWRSCDy5C5Zh-13" target="kJB5yDUEEWRSCDy5C5Zh-87" edge="1">
          <mxGeometry relative="1" as="geometry">
            <mxPoint x="1010" y="-380" as="sourcePoint" />
            <mxPoint x="1010" y="-208" as="targetPoint" />
          </mxGeometry>
        </mxCell>
        <mxCell id="kJB5yDUEEWRSCDy5C5Zh-99" value="" style="endArrow=none;html=1;edgeStyle=orthogonalEdgeStyle;rounded=0;exitX=0.5;exitY=1;exitDx=0;exitDy=0;entryX=0.601;entryY=0.001;entryDx=0;entryDy=0;entryPerimeter=0;" parent="1" source="kJB5yDUEEWRSCDy5C5Zh-13" target="kJB5yDUEEWRSCDy5C5Zh-86" edge="1">
          <mxGeometry relative="1" as="geometry">
            <mxPoint x="900" y="-431" as="sourcePoint" />
            <mxPoint x="450" y="-20" as="targetPoint" />
            <Array as="points">
              <mxPoint x="728" y="-210" />
              <mxPoint x="451" y="-210" />
              <mxPoint x="451" y="-10" />
            </Array>
          </mxGeometry>
        </mxCell>
        <mxCell id="kJB5yDUEEWRSCDy5C5Zh-100" value="" style="endArrow=none;html=1;edgeStyle=orthogonalEdgeStyle;rounded=0;exitX=0.5;exitY=1;exitDx=0;exitDy=0;entryX=0.601;entryY=0.001;entryDx=0;entryDy=0;entryPerimeter=0;" parent="1" source="kJB5yDUEEWRSCDy5C5Zh-96" edge="1">
          <mxGeometry relative="1" as="geometry">
            <mxPoint x="717" y="-352" as="sourcePoint" />
            <mxPoint x="438" y="-10" as="targetPoint" />
            <Array as="points">
              <mxPoint x="552" y="-220" />
              <mxPoint x="430" y="-220" />
              <mxPoint x="430" y="-10" />
            </Array>
          </mxGeometry>
        </mxCell>
      </root>
    </mxGraphModel>
  </diagram>
</mxfile>
